<?xml version="1.0" encoding="UTF-8" standalone="no"?>
<svg
   xmlns:dc="http://purl.org/dc/elements/1.1/"
   xmlns:cc="http://creativecommons.org/ns#"
   xmlns:rdf="http://www.w3.org/1999/02/22-rdf-syntax-ns#"
   xmlns:svg="http://www.w3.org/2000/svg"
   xmlns="http://www.w3.org/2000/svg"
   xmlns:sodipodi="http://sodipodi.sourceforge.net/DTD/sodipodi-0.dtd"
   xmlns:inkscape="http://www.inkscape.org/namespaces/inkscape"
   version="1.1"
   id="svg2"
   width="1000"
   height="1001"
   viewBox="0 0 1000 1001"
   sodipodi:docname="gluten-free.svg"
   inkscape:version="1.0.2 (e86c870879, 2021-01-15)">
  <metadata
     id="metadata8">
    <rdf:RDF>
      <cc:Work
         rdf:about="">
        <dc:format>image/svg+xml</dc:format>
        <dc:type
           rdf:resource="http://purl.org/dc/dcmitype/StillImage" />
        <dc:title></dc:title>
      </cc:Work>
    </rdf:RDF>
  </metadata>
  <defs
     id="defs6" />
  <sodipodi:namedview
     pagecolor="#ffffff"
     bordercolor="#666666"
     borderopacity="1"
     objecttolerance="10"
     gridtolerance="10"
     guidetolerance="10"
     inkscape:pageopacity="0"
     inkscape:pageshadow="2"
     inkscape:window-width="1987"
     inkscape:window-height="1216"
     id="namedview4"
     showgrid="false"
     inkscape:zoom="0.52697468"
     inkscape:cx="52.160647"
     inkscape:cy="500.5"
     inkscape:window-x="432"
     inkscape:window-y="162"
     inkscape:window-maximized="0"
     inkscape:current-layer="g10"
     inkscape:document-rotation="0" />
  <g
     inkscape:groupmode="layer"
     inkscape:label="Image"
     id="g10">
    <path
       style="fill:#8ec641;fill-opacity:1;stroke-width:2.42104"
       d="m 162.41993,983.37678 c -22.89231,-15.29305 -21.90324,-57.09839 1.6149,-68.25848 10.62496,-5.0419 32.23678,-4.83732 39.8566,0.37753 7.75959,5.31017 9.53537,8.0287 9.58055,14.66659 0.031,4.54256 -1.27371,5.44735 -7.8542,5.44735 -5.26928,0 -8.89602,-1.60886 -10.91522,-4.84209 -3.90103,-6.24651 -17.39001,-6.46463 -24.87679,-0.40249 -4.12962,3.34398 -5.75,7.67652 -6.56468,17.55255 -0.95023,11.51924 -0.33062,13.92175 5.0992,19.77053 9.53675,10.27271 30.6225,8.13024 30.6225,-3.11149 0,-3.83932 -1.66555,-4.75689 -8.63445,-4.75689 -7.99111,0 -8.57739,-0.49632 -7.86838,-6.65787 0.7484,-6.5042 1.14318,-6.66301 17.10809,-6.88022 l 16.34204,-0.22244 -0.01,17.16958 -0.01,17.16965 -10.3058,4.23682 c -14.80002,6.08446 -32.9876,5.55433 -43.1862,-1.25871 z m 67.98367,3.76176 c -0.12392,-4.46213 -0.19201,-69.9616 -0.0757,-72.71319 0.0726,-1.72008 3.26315,-3.0263 7.39127,-3.0263 4.07399,0 7.36399,1.32885 7.49281,3.0263 0.12635,1.66447 0.16682,14.20947 0.0898,27.87792 -0.077,13.66829 0.48104,26.46955 1.23987,28.44724 1.04974,2.73548 5.69993,3.59563 19.4394,3.59563 h 18.05958 l -0.76606,6.65786 -0.76606,6.65787 -26.0262,0.68697 c -14.31441,0.37753 -26.04993,-0.1672 -26.07894,-1.21052 z m 76.14528,-0.60147 c -10.80929,-4.37513 -13.14545,-12.36215 -13.14545,-44.94324 v -30.50158 l 7.45884,0.75862 7.45887,0.7587 0.7363,27.67084 c 0.7918,29.75529 2.67699,34.06573 14.89877,34.06573 11.01631,0 13.02594,-5.44266 13.02594,-35.27806 v -27.66903 h 8.47364 8.47365 v 29.17272 c 0,32.24132 -2.85511,41.90249 -13.58931,45.98361 -7.35752,2.79728 -26.86029,2.78662 -33.79128,-0.0227 z m 78.85414,-28.98479 V 925.9253 h -10.89469 c -10.51577,0 -10.89468,-0.25497 -10.89468,-7.33765 V 911.25 l 29.65776,0.68016 29.65776,0.67941 0.76607,6.65786 c 0.73607,6.3973 0.33622,6.65787 -10.21709,6.65787 h -10.98318 l -0.67758,30.86828 -0.67759,30.86829 -7.86839,0.75869 -7.86839,0.75862 z m 47.61383,29.70611 c -0.88772,-0.88777 -1.61403,-18.35385 -1.61403,-38.81354 v -37.19946 l 28.44724,0.68167 28.44725,0.68243 0.76606,6.65787 0.76607,6.65786 h -20.73967 -20.73966 v 7.26313 7.26312 h 18.15782 18.15781 v 7.26313 7.26313 h -18.15781 -18.15782 v 9.68416 9.68417 h 20.57886 20.57886 v 7.26313 7.26312 h -27.43847 c -15.09117,0 -28.1648,-0.72631 -29.05251,-1.614 z m 68.59619,-37.12267 v -38.73667 h 8.20937 c 7.76815,0 8.90263,1.17102 21.10892,21.78937 7.09478,11.98416 13.75053,21.78938 14.7906,21.78938 1.03998,0 1.89091,-9.80522 1.89091,-21.78938 v -21.78937 h 7.26312 7.26313 v 37.60211 c 0,31.21563 -0.61737,37.83922 -3.63701,38.99776 -8.59258,3.29731 -14.70791,-1.85179 -27.83654,-23.43818 l -13.31573,-21.89401 -0.69295,23.10279 -0.69294,23.10287 h -7.17542 -7.17546 z m 105.83002,37.23381 c -0.9489,-0.94882 -1.72522,-18.43041 -1.72522,-38.84782 v -37.12266 h 26.63146 26.63147 v 7.26312 7.26313 h -18.15782 -18.15781 v 8.47364 8.47365 h 15.89754 15.89762 l -0.76611,6.65787 c -0.74068,6.43823 -1.24517,6.65786 -15.29228,6.65786 h -14.52625 l -1.21052,15.73678 c -1.12851,14.67083 -1.62664,15.78526 -7.35369,16.45317 -3.37879,0.39418 -6.91957,-0.0605 -7.86839,-1.00874 z m 62.2869,-1.63481 c -0.662,-1.72567 -0.9004,-18.88481 -0.52884,-38.13141 l 0.67433,-34.99374 h 26.24523 c 24.66263,0 26.52396,0.34424 30.86829,5.71555 8.77726,10.85141 4.51365,30.63654 -7.46218,34.62846 -1.9677,0.65595 0.4373,5.91786 6.96049,15.23025 12.22846,17.45677 12.52027,20.68856 1.86822,20.68856 -7.16848,0 -9.4255,-1.80731 -19.65213,-15.73677 -8.61399,-11.7329 -13.0212,-15.73678 -17.32233,-15.73678 -5.48608,0 -5.76881,0.77133 -5.76881,15.73678 v 15.73677 h -7.33909 c -4.03656,0 -7.88094,-1.41192 -8.54318,-3.13767 z m 43.76109,-47.82042 c 2.51342,-7.919 -2.94194,-11.989 -16.07004,-11.989 h -11.80878 v 8.47364 8.47365 h 13.15261 c 11.129,0 13.39464,-0.76285 14.72621,-4.95829 z m 31.32087,47.89767 c -0.67865,-1.76812 -0.93006,-18.96206 -0.55911,-38.20866 l 0.67487,-34.99374 28.44724,-0.68243 28.44725,-0.68168 v 7.33992 7.33999 h -20.57886 -20.57886 v 7.16129 7.1613 l 18.76308,0.70739 c 18.46922,0.69605 18.7751,0.81136 19.52911,7.36496 l 0.7661,6.65787 h -19.5291 -19.52911 v 9.5899 9.5899 l 21.18411,0.69983 c 20.79585,0.68697 21.18412,0.81044 21.18412,6.75213 v 6.05261 l -28.49354,0.68243 c -21.94304,0.52582 -28.77726,-0.053 -29.7273,-2.53241 z m 70.72953,1.44642 c -0.88769,-0.88777 -1.614,-18.35385 -1.614,-38.81354 v -37.19946 l 28.44724,0.68167 28.44725,0.68243 0.76603,6.65787 0.76611,6.65786 h -20.73971 -20.73963 v 7.26313 7.26312 h 17.87554 c 17.09952,0 17.9254,0.26027 19.02175,5.99571 0.63023,3.29762 0.57575,6.56602 -0.12105,7.26313 -0.69681,0.69681 -9.3226,1.26742 -19.16785,1.26742 h -17.9005 l 0.75128,9.0789 0.75128,9.07891 19.9736,0.70286 19.97359,0.70286 v 7.16522 7.16523 h -27.4385 c -15.09119,0 -28.16481,-0.72631 -29.0525,-1.614 z M 472.56053,825.08043 C 353.18852,813.70834 246.90526,752.2862 176.37048,653.90935 152.33428,620.38541 124.71476,559.04649 114.61933,516.7692 c -6.93645,-29.04827 -8.27815,-40.76861 -9.42662,-82.3466 -1.64696,-59.62572 3.49899,-97.41335 19.61289,-144.02082 9.93099,-28.72415 25.80867,-64.15762 28.74896,-64.15762 1.01722,0 1.84948,-1.44286 1.84948,-3.20636 0,-3.93163 25.39869,-42.39949 37.8457,-57.31969 30.49247,-36.55122 78.57279,-77.280185 115.89046,-98.171205 38.05483,-21.303657 84.32768,-37.96156 128.31523,-46.192573 33.47126,-6.263236 111.44056,-6.362574 142.84147,-0.182335 143.80709,28.304931 258.31769,123.100303 307.33584,254.421933 20.50336,54.92928 26.71454,94.64095 24.93817,159.44362 -1.79633,65.53019 -13.90608,114.13064 -42.08209,168.88886 -17.28488,33.59226 -19.75109,37.54476 -40.5315,64.96064 -55.24386,72.88366 -140.01952,127.00817 -231.5026,147.80129 -36.38372,8.2696 -89.80073,11.83027 -125.89419,8.39178 z m 87.90425,-64.00282 c 21.19267,-3.21076 48.36902,-10.25183 64.63978,-16.74733 6.64773,-2.65384 17.2618,-6.89906 23.58678,-9.43367 44.22116,-17.72112 100.20072,-62.21087 132.80777,-105.54896 15.65256,-20.80386 32.42834,-47.47784 32.42834,-51.56207 0,-1.37931 0.91992,-2.87105 2.04427,-3.31486 2.45282,-0.96834 20.12703,-46.21723 25.37509,-64.96465 8.84649,-31.60171 11.93672,-60.58907 10.582,-99.26272 -1.54085,-43.98829 -6.94681,-72.17497 -20.77141,-108.30349 -13.5654,-35.45125 -39.0427,-80.07173 -55.53227,-97.25848 -2.77724,-2.89466 -11.02285,4.34486 -55.0231,48.30947 -28.466,28.44293 -52.28073,51.18998 -52.92163,50.54909 -0.64082,-0.64082 -4.53627,-13.56298 -8.65636,-28.71575 -4.12008,-15.15285 -8.48825,-29.28614 -9.70701,-31.40742 -1.75276,-3.05067 6.40554,-12.50726 39.03029,-45.24141 l 41.24639,-41.38454 -16.54344,-12.17156 C 670.86627,113.58302 618.34849,90.794961 568.68589,81.97798 540.99333,77.061449 482.67294,76.364643 458.03428,80.655864 383.30303,93.671537 319.01432,125.92072 269.15747,175.40228 c -22.33644,22.16827 -26.64906,27.30595 -44.18148,52.63338 -25.41082,36.70859 -45.04532,83.10756 -54.13801,127.93535 -6.87427,33.8908 -6.31412,100.77821 1.12359,134.16673 9.94728,44.65407 27.46008,85.77986 52.06373,122.26262 5.38801,7.98943 11.19407,15.94188 12.90236,17.67209 1.70831,1.73014 4.16957,4.99854 5.46945,7.26313 1.9939,3.47351 10.66823,-4.16692 55.47435,-48.86215 l 53.11088,-52.97951 1.6399,8.19023 c 0.90196,4.50457 4.83346,18.71042 8.73669,31.56849 3.90325,12.85808 7.0968,24.83021 7.0968,26.60476 0,1.77447 -17.64368,20.89442 -39.20817,42.48868 l -39.20819,39.26227 4.69656,5.18957 c 7.25102,8.01229 41.3887,29.98431 63.71792,41.01071 25.24711,12.46732 57.76756,23.43192 86.13261,29.04049 25.79954,5.10128 88.90603,6.31491 115.87832,2.22849 z m -86.69372,-83.76897 c -10.709,-2.45198 -31.47113,-10.95309 -38.51874,-15.7715 -12.13241,-8.29494 -31.44359,-29.1103 -38.16724,-41.14016 -9.15374,-16.37782 -14.83263,-36.53102 -15.08844,-53.54588 l -0.22516,-14.97679 9.67756,-0.78714 c 12.2618,-0.99725 40.15289,5.68385 54.98717,13.17175 15.47326,7.81043 40.69674,31.87612 48.5685,46.33912 8.40878,15.44973 13.87148,36.8584 13.87148,54.36336 v 14.01761 l -15.13152,-0.28069 c -8.32233,-0.15434 -17.31045,-0.77973 -19.97359,-1.38953 z m 47.21031,-9.59035 c 0,-53.28819 40.13778,-102.37088 92.99495,-113.71937 8.10777,-1.7408 19.37166,-3.20334 25.03085,-3.25009 l 10.28943,-0.0847 -0.0303,13.92099 c -0.0893,43.44083 -26.3749,84.25408 -66.77869,103.68755 -15.85533,7.62613 -21.70078,9.10864 -40.03692,10.15408 l -21.46935,1.22391 z M 473.79565,552.66062 C 421.6274,542.71233 380.67098,490.89666 380.57496,434.72319 l -0.0144,-8.20416 21.24765,1.21151 c 17.55161,1.00072 24.1251,2.59921 37.78951,9.18944 9.09803,4.38791 21.71561,12.06761 28.03908,17.066 23.89483,18.88746 41.23949,55.07409 41.23949,86.03816 v 15.48173 l -11.49994,-0.27085 c -6.32498,-0.14905 -16.93624,-1.30744 -23.58057,-2.57448 z m 47.18572,-8.87267 c 0,-17.673 8.44505,-47.10523 17.63321,-61.45437 21.45058,-33.49935 59.26272,-55.03679 96.76103,-55.11418 l 13.92099,-0.0303 v 13.54838 c 0,61.47343 -54.67916,114.76685 -117.75101,114.76685 H 520.98137 Z M 487.08679,429.34764 c -22.98448,-2.07876 -31.81838,-4.84836 -49.58142,-15.54475 -32.28047,-19.43824 -51.84763,-52.01147 -55.89051,-93.04034 -1.89659,-19.24751 -3.64453,-17.79595 20.53935,-17.05692 56.0745,1.71334 106.72195,54.10892 106.72195,110.40541 0,8.36818 -0.8171,15.58932 -1.81578,16.0469 -0.99868,0.45772 -9.9868,0.0931 -19.97359,-0.8103 z m 33.89458,-10.51148 c 0,-65.87269 55.92108,-118.37851 122.86788,-115.36394 4.93015,0.22168 5.44462,1.45218 5.4186,12.95576 -0.0681,28.44194 -13.51857,59.44293 -34.93647,80.49964 -22.63735,22.25558 -47.20699,32.50355 -78.21849,32.6249 l -15.13152,0.0605 z M 502.87554,317.79019 c -12.68895,-14.11316 -16.71122,-21.0642 -23.34301,-40.33985 -10.41922,-30.28399 -7.58484,-63.59351 7.88032,-92.60917 8.72766,-16.37479 22.84474,-33.64931 27.49883,-33.64931 4.58242,0 20.57885,18.88277 28.51487,33.66005 23.2967,43.37978 16.70542,97.63677 -16.28915,134.08585 -5.68134,6.27618 -10.92388,11.41121 -11.65007,11.41121 -0.72617,0 -6.4015,-5.65147 -12.61179,-12.55878 z"
       id="path839" />
  </g>
</svg>
