<?xml version="1.0" encoding="UTF-8" standalone="no"?>
<svg
   xmlns:dc="http://purl.org/dc/elements/1.1/"
   xmlns:cc="http://creativecommons.org/ns#"
   xmlns:rdf="http://www.w3.org/1999/02/22-rdf-syntax-ns#"
   xmlns:svg="http://www.w3.org/2000/svg"
   xmlns="http://www.w3.org/2000/svg"
   xmlns:sodipodi="http://sodipodi.sourceforge.net/DTD/sodipodi-0.dtd"
   xmlns:inkscape="http://www.inkscape.org/namespaces/inkscape"
   version="1.1"
   id="svg2"
   width="47.360001"
   height="41.919998"
   viewBox="0 0 47.360001 41.919998"
   sodipodi:docname="gmo.svg"
   inkscape:version="1.0.2 (e86c870879, 2021-01-15)">
  <metadata
     id="metadata8">
    <rdf:RDF>
      <cc:Work
         rdf:about="">
        <dc:format>image/svg+xml</dc:format>
        <dc:type
           rdf:resource="http://purl.org/dc/dcmitype/StillImage" />
        <dc:title></dc:title>
      </cc:Work>
    </rdf:RDF>
  </metadata>
  <defs
     id="defs6" />
  <sodipodi:namedview
     pagecolor="#ffffff"
     bordercolor="#666666"
     borderopacity="1"
     objecttolerance="10"
     gridtolerance="10"
     guidetolerance="10"
     inkscape:pageopacity="0"
     inkscape:pageshadow="2"
     inkscape:window-width="1707"
     inkscape:window-height="1126"
     id="namedview4"
     showgrid="false"
     inkscape:zoom="17.795802"
     inkscape:cx="23.68"
     inkscape:cy="20.959999"
     inkscape:window-x="774"
     inkscape:window-y="252"
     inkscape:window-maximized="0"
     inkscape:current-layer="g10" />
  <g
     inkscape:groupmode="layer"
     inkscape:label="Image"
     id="g10">
    <path
       style="fill:#7cc72c;fill-opacity:1;stroke-width:0.341719"
       d="M 21.522028,40.661947 C 18.285148,39.845077 15.301412,38.172975 12.655177,35.692919 8.9125136,32.185286 6.9077007,28.32211 6.3055079,23.457422 5.9869963,20.884393 6.0358787,20.682394 6.9210277,20.913865 c 0.4929799,0.128918 0.6901456,0.610626 0.8610395,2.103667 0.8841628,7.724597 6.7470998,14.377847 14.2179838,16.134541 2.256063,0.530489 6.384725,0.535762 8.647215,0.01104 4.673338,-1.083838 9.83797,-5.115605 12.114088,-9.456849 2.832222,-5.401913 2.824605,-11.951943 -0.02023,-17.395893 C 41.254962,9.4664147 37.44531,5.7323259 34.643481,4.373345 27.455255,0.88681652 19.011746,2.2145134 13.348482,7.7218707 11.460127,9.5582401 11.213124,9.699367 10.736803,9.2140667 10.261488,8.7297893 10.441522,8.4576375 12.602766,6.3933651 16.74434,2.437615 21.591686,0.64662539 27.296703,0.96427252 31.09655,1.1758426 34.198961,2.1315588 37.033917,3.9638793 c 5.987216,3.869723 9.360339,10.0176457 9.360339,17.0603397 0,8.670751 -5.307796,16.154926 -13.499902,19.035335 -3.158085,1.11041 -8.283497,1.381903 -11.372326,0.602393 z M 12.431906,27.175169 v -3.758914 h 2.929672 c 2.605706,0 2.917087,0.06612 2.815864,0.598009 -0.08978,0.471724 -0.528044,0.619651 -2.075372,0.700492 -1.921172,0.100369 -1.961567,0.123243 -1.961567,1.110588 0,0.994133 0.02605,1.008106 1.879457,1.008106 1.651645,0 1.879457,0.08283 1.879457,0.683439 0,0.600597 -0.227812,0.683439 -1.879457,0.683439 h -1.879457 v 1.366877 c 0,1.23019 -0.08543,1.366878 -0.854298,1.366878 h -0.854299 z m 6.720483,3.531101 c -0.125298,-0.125297 -0.227813,-1.816809 -0.227813,-3.758914 v -3.531101 h 2.708954 c 2.519514,0 2.758481,0.06296 3.417195,0.900383 0.912992,1.160681 0.892533,1.680145 -0.105474,2.678156 l -0.813718,0.813717 0.803053,1.306496 c 1.004068,1.63353 1.009476,1.819076 0.05302,1.819076 -0.545519,0 -1.035746,-0.437714 -1.674384,-1.495022 -0.695045,-1.150696 -1.107665,-1.495023 -1.791538,-1.495023 -0.821479,0 -0.888513,0.112793 -0.888513,1.495023 0,1.221905 -0.114448,1.495022 -0.626485,1.495022 -0.344568,0 -0.729002,-0.102516 -0.854299,-0.227813 z m 4.37561,-4.335985 c 1.09216,-0.798607 0.423246,-1.587152 -1.346363,-1.587152 -1.492701,0 -1.548463,0.03692 -1.548463,1.025158 0,0.932518 0.102174,1.025159 1.130706,1.025159 0.621888,0 1.415741,-0.208425 1.76412,-0.463165 z m 3.256125,0.804884 v -3.758914 h 2.904616 c 2.6768,0 2.904615,0.05361 2.904615,0.683439 0,0.607501 -0.227815,0.683439 -2.050317,0.683439 -1.959192,0 -2.050316,0.03797 -2.050316,0.854299 0,0.8077 0.102515,0.854298 1.879457,0.854298 1.661504,0 1.879457,0.08052 1.879457,0.694368 0,0.630008 -0.174206,0.682009 -1.879457,0.561027 -1.870857,-0.13273 -1.879457,-0.128869 -1.879457,0.84337 0,0.974292 0.0054,0.97671 2.221176,0.97671 1.993362,0 2.221176,0.0701 2.221176,0.683439 0,0.632814 -0.227814,0.683439 -3.075475,0.683439 h -3.075475 z m 7.176109,0 v -3.758914 h 2.904615 c 2.676801,0 2.904616,0.05361 2.904616,0.683439 0,0.607501 -0.227815,0.683439 -2.050317,0.683439 -1.959191,0 -2.050317,0.03797 -2.050317,0.854299 0,0.809062 0.100839,0.854298 1.904512,0.854298 1.631615,0 1.887361,0.08569 1.784804,0.598009 -0.09615,0.480303 -0.471013,0.595137 -1.904515,0.583419 -1.72934,-0.01414 -1.784801,0.01507 -1.784801,0.939729 0,0.946732 0.01766,0.954318 2.221177,0.954318 1.993361,0 2.221176,0.0701 2.221176,0.683439 0,0.632814 -0.227815,0.683439 -3.075475,0.683439 H 33.960233 Z M 21.658331,20.6825 c -0.480938,-0.480939 -0.683439,-1.139065 -0.683439,-2.221177 0,-1.972902 0.852517,-2.904615 2.657722,-2.904615 1.273026,0 2.809791,0.758186 2.809791,1.386254 0,0.4302 -1.269773,0.4142 -1.537738,-0.01938 -0.404988,-0.655282 -1.852711,-0.358492 -2.411531,0.494374 -0.471848,0.720131 -0.484151,0.968952 -0.0887,1.794026 0.369933,0.771839 0.685047,0.957935 1.622064,0.957935 0.639615,0 1.227008,-0.192217 1.30532,-0.427149 0.08353,-0.250594 -0.151876,-0.42715 -0.569533,-0.42715 -0.405001,0 -0.711915,-0.220978 -0.711915,-0.512579 0,-0.357992 0.360703,-0.512579 1.196018,-0.512579 1.136751,0 1.196018,0.05867 1.196018,1.183995 0,1.412188 -0.687029,1.89148 -2.711291,1.89148 -0.933717,0 -1.613472,-0.224129 -2.072782,-0.683439 z m 5.809232,-2.243875 v -2.927313 l 0.926051,0.108128 c 0.799359,0.09333 1.001913,0.365257 1.480547,1.987584 l 0.554495,1.879457 0.632176,-1.964886 c 0.529227,-1.64491 0.761133,-1.964887 1.424068,-1.964887 0.765936,0 0.791894,0.09521 0.791894,2.904615 0,2.354067 -0.09716,2.904615 -0.512579,2.904615 -0.393777,0 -0.517419,-0.455412 -0.533456,-1.964886 l -0.02088,-1.964887 -0.588515,1.876969 c -0.796754,2.541113 -1.465449,2.596891 -2.225529,0.18564 -0.327978,-1.040462 -0.639559,-1.89175 -0.692405,-1.89175 -0.05285,0 -0.02595,0.845756 0.05978,1.879457 0.144053,1.737096 0.100882,1.879457 -0.569895,1.879457 -0.683378,0 -0.725754,-0.17092 -0.725754,-2.927313 z m 7.577393,2.136421 c -1.042313,-1.109493 -1.018068,-3.273917 0.04789,-4.275332 1.001809,-0.94115 2.936262,-0.98412 4.040754,-0.08976 0.639699,0.517999 0.806725,0.984121 0.806725,2.251368 0,1.267248 -0.167026,1.73337 -0.806725,2.251369 -1.148648,0.93012 -3.148788,0.862784 -4.088643,-0.137646 z m 3.426079,-1.102333 c 0.82625,-1.813418 -0.897109,-3.704813 -2.308434,-2.533517 -0.598095,0.496374 -0.652012,2.423217 -0.08371,2.991521 0.720639,0.720637 1.963544,0.482668 2.392142,-0.458004 z m -25.286447,0.948101 c -0.220736,-0.07358 0.334617,-0.852112 1.234118,-1.730074 1.640021,-1.60075 5.232183,-6.551227 4.753697,-6.551227 -0.07382,0 -0.716502,0.845436 -1.42817,1.878747 -1.407413,2.043502 -5.425808,5.983997 -6.093697,5.975568 -0.297555,-0.0037 -0.306168,-0.07613 -0.0305,-0.25629 0.211281,-0.138081 0.71047,-0.789265 1.109311,-1.447075 0.860188,-1.418711 0.948676,-3.593762 0.21741,-5.343929 -0.280672,-0.67174 -0.426599,-1.356793 -0.324285,-1.522341 0.678662,-1.098096 7.781252,-4.7261092 9.292151,-4.7464422 0.57357,-0.00772 0.545011,1.6208996 -0.09253,5.2768482 -0.730657,4.189898 -1.968037,6.316676 -4.43525,7.623193 -1.088301,0.576312 -3.531795,1.066508 -4.20225,0.843022 z M 5.4266574,19.772968 C 3.8301895,18.931331 2.8721031,17.923639 1.9053019,16.069287 1.0826335,14.491385 1.0039488,13.9594 0.87665173,9.1145964 L 0.73881071,3.8685037 1.5449963,4.1133166 c 3.576968,1.0862119 8.5335477,4.8761881 10.2179807,7.8130304 1.493465,2.603885 1.293949,5.877948 -0.4462,7.322143 -1.050117,0.871519 -4.5540258,-2.758792 -6.945648,-7.196209 -1.7239722,-3.19866 -1.4002802,-2.013358 0.4043973,1.48083 0.8635248,1.671944 2.2961792,3.813327 3.1836755,4.758629 0.8874967,0.945302 1.5393116,1.793052 1.4484772,1.883886 -0.3702028,0.370203 -3.0241975,0.101768 -3.9810216,-0.402658 z"
       id="path837" />
  </g>
</svg>
