<?xml version="1.0" encoding="UTF-8" standalone="no"?>
<svg
   xmlns:dc="http://purl.org/dc/elements/1.1/"
   xmlns:cc="http://creativecommons.org/ns#"
   xmlns:rdf="http://www.w3.org/1999/02/22-rdf-syntax-ns#"
   xmlns:svg="http://www.w3.org/2000/svg"
   xmlns="http://www.w3.org/2000/svg"
   xmlns:sodipodi="http://sodipodi.sourceforge.net/DTD/sodipodi-0.dtd"
   xmlns:inkscape="http://www.inkscape.org/namespaces/inkscape"
   version="1.1"
   id="svg2"
   width="1000"
   height="1001"
   viewBox="0 0 1000 1001"
   sodipodi:docname="organic.svg"
   inkscape:version="1.0.2 (e86c870879, 2021-01-15)">
  <metadata
     id="metadata8">
    <rdf:RDF>
      <cc:Work
         rdf:about="">
        <dc:format>image/svg+xml</dc:format>
        <dc:type
           rdf:resource="http://purl.org/dc/dcmitype/StillImage" />
        <dc:title></dc:title>
      </cc:Work>
    </rdf:RDF>
  </metadata>
  <defs
     id="defs6" />
  <sodipodi:namedview
     pagecolor="#ffffff"
     bordercolor="#666666"
     borderopacity="1"
     objecttolerance="10"
     gridtolerance="10"
     guidetolerance="10"
     inkscape:pageopacity="0"
     inkscape:pageshadow="2"
     inkscape:window-width="1987"
     inkscape:window-height="1216"
     id="namedview4"
     showgrid="false"
     inkscape:zoom="0.52697468"
     inkscape:cx="52.160647"
     inkscape:cy="500.5"
     inkscape:window-x="283"
     inkscape:window-y="162"
     inkscape:window-maximized="0"
     inkscape:current-layer="g10"
     inkscape:document-rotation="0" />
  <g
     inkscape:groupmode="layer"
     inkscape:label="Image"
     id="g10">
    <path
       style="fill:#8ec641;fill-opacity:1;stroke-width:4.17693"
       d="M 549.62496,878.18803 C 432.70964,867.69445 327.22865,798.83829 261.68449,690.22554 c -7.85354,-13.01407 -19.91803,-26.90583 -26.80997,-30.87058 -18.52058,-10.65444 -73.15619,-51.2221 -88.75983,-65.90536 -7.46627,-7.02585 -13.57503,-11.6658 -13.57503,-10.31097 0,1.35483 12.65787,14.75385 28.12859,29.77556 15.47073,15.02171 27.07859,28.36221 25.79525,29.64553 -3.98613,3.98613 -50.1892,-9.84181 -71.32997,-21.34805 C 65.850637,594.38858 33.371942,543.2008 21.698417,473.95409 14.220564,429.59585 14.417293,431.00323 15.090899,426.6852 c 0.69591,-4.46101 81.340702,36.54515 109.595321,55.72692 46.78168,31.75961 83.56686,81.83358 95.79707,130.40416 2.71734,10.79153 6.5971,19.62098 8.62169,19.62098 5.14939,0 4.73995,-2.73167 -5.00855,-33.41546 -6.27271,-19.74361 -9.26761,-43.32445 -10.97852,-86.44115 -2.04669,-51.57836 -1.16464,-64.43257 6.78068,-98.81611 13.83228,-59.85953 45.5314,-120.93724 85.83978,-165.3957 14.61924,-16.12441 15.19168,-17.41759 4.32094,-9.76139 -27.29728,19.22533 -53.14732,53.41677 -78.46347,103.78241 -18.69552,37.19411 -28.05128,69.01416 -34.31359,116.70466 l -4.93632,37.5924 -7.97423,-25.0616 c -6.22406,-19.56108 -7.92375,-36.97935 -7.74415,-79.36173 0.2032,-47.95236 1.56159,-58.14116 11.6201,-87.1571 19.03868,-54.92122 45.56677,-87.2256 101.91466,-124.10579 29.97333,-19.61782 65.46635,-34.97406 109.70106,-47.46274 30.43952,-8.59391 104.17253,-18.64843 106.70509,-14.55071 1.10071,1.78099 -0.13617,8.54797 -2.74879,15.03773 -5.12314,12.72633 -5.27831,13.10412 -24.57699,59.8343 -15.01637,36.36093 -49.74606,99.09928 -68.20986,123.21952 -23.19866,30.30565 -54.41014,61.97406 -100.13404,101.59998 -59.24906,51.34732 -78.13663,75.11975 -78.0402,98.22366 0.0929,22.25455 9.67131,67.44805 21.14338,99.76009 9.60758,27.06047 45.20141,90.95952 50.6674,90.95952 1.81582,0 3.11412,-20.20591 2.88513,-44.90203 -0.26833,-28.94013 -1.60517,-41.18994 -3.76058,-34.45969 -1.83932,5.74328 -3.53158,17.33719 -3.76058,25.7642 -0.22898,8.42704 -1.58977,18.37975 -3.02394,22.11715 -2.35054,6.12543 -3.11466,6.05613 -7.75158,-0.7026 -13.4498,-19.6044 -19.82358,-52.03987 -18.17371,-92.48398 2.2702,-55.6506 15.49137,-83.57636 62.52039,-132.05568 19.0056,-19.59169 36.04212,-34.13476 37.85893,-32.31795 1.81682,1.81682 6.30863,22.95323 9.9818,46.96975 8.84717,57.8461 6.12186,121.32928 -6.80574,158.53217 -9.74173,28.03462 -30.80578,64.60032 -43.00406,74.65199 -13.9929,11.5305 -5.93444,39.07876 17.53837,59.95582 76.19522,67.76915 183.62995,102.71475 279.25022,90.8325 C 777.20882,831.03505 898.08266,725.53454 936.96369,580.2256 948.94718,535.44015 948.09183,445.19941 935.262,400.69328 922.05914,354.89297 896.98747,302.94347 871.48212,268.53863 843.63104,230.96957 794.05723,185.55129 762.6033,168.78652 c -25.31292,-13.49163 -31.63881,-21.26404 -9.37692,-11.52106 79.27134,34.69329 162.099,118.01728 193.41873,194.57771 23.35185,57.08311 27.32603,77.83054 27.34479,142.75528 0.0209,73.49767 -8.37287,110.30526 -39.53154,173.34274 -70.74713,143.12946 -220.58195,224.98903 -384.8334,210.24684 z M 447.47915,633.41754 c -15.1667,-10.1271 -20.08128,-51.94818 -8.23015,-70.0353 8.70335,-13.28302 25.8614,-17.5011 39.68667,-9.7564 21.35628,11.96349 26.4016,56.87617 8.4103,74.86748 -8.13182,8.13182 -30.85885,10.93897 -39.86682,4.92422 z m 31.43664,-15.22684 c 2.68978,-3.24096 5.93191,-12.31038 7.20479,-20.1542 1.82394,-11.23946 0.12573,-16.80602 -8.01449,-26.26948 -10.02197,-11.65118 -10.64441,-11.80122 -20.9497,-5.04891 -14.00024,9.17329 -17.97614,27.97601 -9.41593,44.52961 7.25174,14.02334 22.4838,17.41564 31.17533,6.94298 z m 29.54783,-23.34584 v -41.76933 h 22.13775 c 12.17576,0 24.39328,2.25555 27.15006,5.01232 7.07702,7.07702 6.23086,30.54587 -1.32747,36.81875 -5.62194,4.6658 -5.38549,6.87899 2.08847,19.54642 10.03357,17.00567 10.55648,22.16117 2.24773,22.16117 -3.39927,0 -9.89787,-7.28666 -14.44133,-16.19259 -14.03579,-27.51241 -29.62815,-27.77376 -27.68292,-0.46393 0.84324,11.83897 -0.45624,16.65652 -4.49296,16.65652 -4.40921,0 -5.67933,-9.34129 -5.67933,-41.76933 z m 39.68086,-18.7962 c 0,-6.37174 -3.22091,-8.66442 -13.57503,-9.66274 -12.20224,-1.17652 -13.57503,-0.19924 -13.57503,9.66274 0,9.86212 1.37279,10.83927 13.57503,9.66275 10.35412,-0.99832 13.57503,-3.291 13.57503,-9.66275 z m 36.50727,52.14291 c -22.64461,-26.23924 -7.50832,-79.29297 22.6224,-79.29297 10.16603,0 30.67439,16.62879 30.67439,24.87176 0,7.21009 -10.72097,4.93592 -18.7962,-3.98709 -9.29889,-10.27518 -15.5267,-10.54513 -24.08879,-1.04424 -10.80693,11.99189 -12.78659,28.04552 -5.25458,42.61082 5.81433,11.24367 8.83614,13.03407 20.1461,11.93642 15.51125,-1.50537 20.67991,-13.57194 7.31105,-17.06799 -4.70585,-1.23061 -8.55611,-5.23287 -8.55611,-8.89391 0,-4.82272 4.02728,-6.65644 14.61927,-6.65644 14.52486,0 14.61926,0.1203 14.61926,18.64925 0,14.16302 -1.94352,19.68936 -8.07927,22.97314 -13.69926,7.3316 -37.19074,5.20224 -45.21752,-4.09875 z m 57.47373,5.30024 c 0,-1.7173 5.79386,-20.5135 12.87522,-41.76933 9.70365,-29.12688 14.67679,-38.64695 20.18854,-38.64695 4.0223,0 7.4387,2.34953 7.59204,5.22117 0.15329,2.87164 5.16565,19.17764 11.1385,36.23552 5.9728,17.05793 10.85969,33.5046 10.85969,36.54816 0,10.96032 -11.9292,5.25083 -14.61927,-6.99699 -2.37897,-10.83145 -4.61897,-12.5308 -16.51751,-12.5308 -11.95317,0 -14.09514,1.64956 -16.27141,12.5308 -1.4699,7.34957 -5.13997,12.5308 -8.87598,12.5308 -3.5034,0 -6.36982,-1.40508 -6.36982,-3.12238 z m 37.52844,-41.77965 c -0.0334,-4.02029 -1.65323,-9.81675 -3.59567,-12.88103 -2.81726,-4.44434 -4.07176,-4.16399 -6.20145,1.38586 -4.424,11.5288 -3.03274,18.80481 3.59567,18.80481 3.44597,0 6.23662,-3.28934 6.20145,-7.30964 z m 32.21088,41.76933 c -0.96884,-1.72298 -1.98053,-15.35023 -2.24819,-30.28276 -0.99161,-55.317 8.14072,-64.48479 27.04501,-27.15007 6.39781,12.63523 13.11933,22.97314 14.93671,22.97314 1.81739,0 3.30433,-10.33791 3.30433,-22.97314 0,-17.63592 1.45558,-22.97313 6.2654,-22.97313 5.15154,0 6.2654,7.42567 6.2654,41.76933 0,50.56984 -5.22367,54.03231 -25.59962,16.9685 -7.49889,-13.64044 -15.1446,-23.86745 -16.99047,-22.72661 -1.84592,1.14081 -3.35617,12.3012 -3.35617,24.80083 0,20.00588 -4.37793,28.92059 -9.6224,19.59391 z m 68.09946,-38.63663 c 0,-34.34366 1.11387,-41.76933 6.2654,-41.76933 5.15154,0 6.2654,7.42567 6.2654,41.76933 0,34.34366 -1.11386,41.76933 -6.2654,41.76933 -5.15153,0 -6.2654,-7.42567 -6.2654,-41.76933 z m 31.92025,32.37123 c -13.34793,-21.38953 -11.28449,-57.62413 4.00405,-70.31244 10.07848,-8.36439 35.01314,-6.93392 41.83841,2.40023 12.33211,16.86516 3.95911,25.37023 -10.62177,10.78936 -11.44776,-11.44777 -24.34078,-6.79796 -29.11727,10.50101 -4.03024,14.59638 -2.16399,29.29004 4.86044,38.26798 6.50629,8.31573 23.03291,6.32713 26.03533,-3.1327 3.33215,-10.49872 14.61926,-10.99853 14.61926,-0.64738 0,20.83992 -40.2772,30.3079 -51.61845,12.13394 z M 750.72573,505.83603 c 0,-1.69078 6.81918,-17.51225 29.14743,-67.62617 4.09427,-9.18926 14.3897,-33.62431 22.87874,-54.30013 16.52474,-40.24734 24.7609,-52.33113 31.1945,-45.76725 3.55474,3.62677 -7.72093,34.40071 -33.60426,91.71351 -4.14999,9.18925 -12.92047,29.86507 -19.48995,45.94626 -9.05605,22.16803 -14.14288,29.56129 -21.03545,30.57327 -5.00008,0.7341 -9.09101,0.49134 -9.09101,-0.53949 z m 66.83097,-7.06065 c -6.51142,-6.51142 -8.35387,-13.92309 -8.35387,-33.6053 0,-21.24096 1.62834,-26.87982 10.2525,-35.50393 11.93191,-11.93197 17.85367,-12.66934 30.5165,-3.79992 11.77536,8.24777 16.86119,27.99342 13.28298,51.57113 -4.32363,28.48939 -27.6533,39.38283 -45.69811,21.33802 z m 30.03219,-35.77852 c -1.30082,-34.60154 -21.67832,-32.22671 -21.67832,2.52642 0,12.20312 2.03943,20.78129 5.22116,21.96089 9.05163,3.35588 17.05613,-8.5544 16.45716,-24.48731 z m -382.1425,37.31522 c -1.61096,-1.61096 -2.92903,-27.99059 -2.92903,-58.62146 0,-30.63083 -1.00593,-55.69243 -2.23541,-55.69243 -1.22948,0 -6.78568,2.98145 -12.34714,6.62544 -10.07456,6.60111 -18.83292,5.15298 -18.83292,-3.11389 0,-2.39211 8.45829,-12.92878 18.7962,-23.41481 10.33791,-10.48603 18.7962,-20.63545 18.7962,-22.55426 0,-1.9188 3.79984,-3.48874 8.44405,-3.48874 8.22083,0 8.41405,2.12444 7.30963,80.35187 -0.96901,68.63599 -2.07765,80.53302 -7.60348,81.59459 -3.55799,0.68347 -7.78714,-0.0752 -9.3981,-1.68631 z m 70.46248,-8.6676 c -12.89925,-13.91127 -16.49312,-35.52297 -14.12919,-84.96625 1.98267,-41.46947 9.1515,-56.7116 29.9309,-63.63806 28.09948,-9.3665 46.04125,6.93119 52.99125,48.13544 7.43268,44.06599 -1.63845,92.0125 -20.0535,105.99462 -12.96746,9.84591 -37.01393,7.11967 -48.73946,-5.52575 z m 35.3006,-9.62599 c 10.35891,-5.54392 16.56529,-28.97 16.5861,-62.60483 0.0418,-64.8879 -39.24287,-81.0513 -48.15754,-19.81491 -4.03921,27.74594 1.18717,63.29478 11.17171,75.9881 9.52993,12.11532 9.6871,12.16486 20.39973,6.43164 z m 66.87173,11.76011 c -11.85986,-12.73008 -16.80685,-33.5 -16.71746,-70.18801 0.13867,-56.81084 9.67185,-77.40948 37.95023,-81.99843 11.74399,-1.90578 17.13967,-0.2329 27.57778,8.55018 10.88409,9.15837 13.78046,15.68226 17.95798,40.44925 7.53368,44.66488 0.86278,86.36609 -16.61121,103.84008 -11.95141,11.95141 -38.73938,11.60264 -50.15732,-0.65307 z m 33.11807,-11.62277 c 10.92949,-5.8493 16.87602,-26.37002 16.84916,-58.14429 -0.0334,-39.30524 -6.05651,-58.1681 -19.66496,-61.58361 -8.30387,-2.08414 -12.71746,-0.57997 -18.21339,6.20718 -15.65949,19.33865 -15.10203,86.62616 0.88605,106.95174 9.5001,12.07739 9.71785,12.1484 20.14314,6.56898 z m 62.81873,-66.9191 c -6.42596,-6.42596 -8.35387,-13.92311 -8.35387,-32.48608 0,-30.66759 7.65002,-42.69872 27.15007,-42.69872 19.29601,0 27.15006,12.08315 27.15006,41.76933 0,28.55429 -8.00396,41.76933 -25.29843,41.76933 -6.7617,0 -16.0532,-3.75924 -20.64783,-8.35386 z m 24.27237,-11.95464 c 3.62474,-2.29873 5.03692,-10.39701 4.17693,-23.9534 -1.09511,-17.26286 -2.61171,-20.48056 -9.6531,-20.48056 -6.87803,0 -8.58489,3.22054 -9.66162,18.22982 -1.94432,27.10372 2.2555,34.37377 15.13779,26.20414 z"
       id="path841" />
  </g>
</svg>
