<?xml version="1.0" encoding="UTF-8" standalone="no"?>
<svg
   xmlns:dc="http://purl.org/dc/elements/1.1/"
   xmlns:cc="http://creativecommons.org/ns#"
   xmlns:rdf="http://www.w3.org/1999/02/22-rdf-syntax-ns#"
   xmlns:svg="http://www.w3.org/2000/svg"
   xmlns="http://www.w3.org/2000/svg"
   xmlns:sodipodi="http://sodipodi.sourceforge.net/DTD/sodipodi-0.dtd"
   xmlns:inkscape="http://www.inkscape.org/namespaces/inkscape"
   version="1.1"
   id="svg2"
   width="1000"
   height="1001"
   viewBox="0 0 1000 1001"
   sodipodi:docname="vegan.svg"
   inkscape:version="1.0.2 (e86c870879, 2021-01-15)">
  <metadata
     id="metadata8">
    <rdf:RDF>
      <cc:Work
         rdf:about="">
        <dc:format>image/svg+xml</dc:format>
        <dc:type
           rdf:resource="http://purl.org/dc/dcmitype/StillImage" />
        <dc:title></dc:title>
      </cc:Work>
    </rdf:RDF>
  </metadata>
  <defs
     id="defs6" />
  <sodipodi:namedview
     pagecolor="#ffffff"
     bordercolor="#666666"
     borderopacity="1"
     objecttolerance="10"
     gridtolerance="10"
     guidetolerance="10"
     inkscape:pageopacity="0"
     inkscape:pageshadow="2"
     inkscape:window-width="1987"
     inkscape:window-height="1216"
     id="namedview4"
     showgrid="false"
     inkscape:zoom="0.52697468"
     inkscape:cx="500"
     inkscape:cy="500.5"
     inkscape:window-x="432"
     inkscape:window-y="205"
     inkscape:window-maximized="0"
     inkscape:current-layer="g10" />
  <g
     inkscape:groupmode="layer"
     inkscape:label="Image"
     id="g10">
    <path
       style="fill:#027d23;fill-opacity:1"
       d="M 461,983.91885 C 370.16372,975.27736 293.5984,949.38811 228.03037,905.14415 179.62504,872.48123 142.33761,836.49753 106.80894,788.16115 98.245297,776.5104 82.019947,751.41264 74.389236,738.01356 33.284708,665.83645 12.282341,574.31517 16.901211,487.5 19.896288,431.20526 29.95741,384.81852 50.534108,332.43574 69.73844,283.54663 103.66107,228.26626 138.40817,189.23603 c 10.69368,-12.01184 35.83542,-36.80357 45.34183,-44.7106 1.7875,-1.48677 3.25,-3.12102 3.25,-3.63167 0,-1.4087 -9.38266,-17.82193 -18.51797,-32.39376 C 147.37279,74.828404 127.83419,46.753041 119.41869,38 c -7.93797,-8.256353 -9.51314,-17.004359 -3.06028,-16.995864 3.87853,0.0051 9.09565,3.199093 29.3797,17.986654 25.5317,18.613209 49.04741,38.886009 71.21117,61.39085 5.74711,5.83555 11.2407,10.86127 12.20798,11.16827 1.12411,0.35678 4.93111,-1.56128 10.55072,-5.31571 55.43076,-37.032969 119.08903,-61.584558 188.40388,-72.663212 52.42175,-8.378614 111.31947,-6.656076 166.4445,4.867879 25.76342,5.385876 61.16775,16.428418 83.44364,26.025913 4.675,2.014209 11.65,5.019033 15.5,6.677387 13.86191,5.970897 55.72786,29.409813 61.54483,34.456253 0.84965,0.73711 5.1615,3.49151 9.58188,6.12089 l 8.03706,4.78069 9.91811,-0.64979 c 5.45497,-0.35738 16.21812,-0.69878 23.91812,-0.75867 36.85703,-0.28665 81.9722,-5.2362 102.19223,-11.21143 C 946.68787,92.651996 957.0871,90 963.12008,90 c 3.33224,0 4.83944,0.452135 5.27293,1.581787 1.86761,4.8669 -0.39422,11.106483 -10.28281,28.366663 -12.13204,21.17603 -18.95661,42.37953 -23.0574,71.6378 -4.31298,30.77223 -5.31512,37.14365 -7.22161,45.91375 -2.61084,12.01025 -5.20502,21.47443 -8.28653,30.23122 -1.39956,3.97717 -2.54466,8.08198 -2.54466,9.1218 0,1.03982 2.38973,6.11077 5.31051,11.26878 24.16181,42.669 41.60396,95.88836 50.1044,152.8782 6.1668,41.34423 4.20792,102.2757 -4.87055,151.5 C 955.34162,658.66439 928.72371,721.64005 889.1391,778 863.17999,814.96017 828.61684,851.44072 791,881.58341 764.5713,902.76095 724.15253,927.90062 694.2626,941.75215 645.69337,964.26001 586.44788,979.8348 533.60478,983.9868 518.75262,985.15376 473.53617,985.11145 461,983.9189 Z m 71.93002,-46.40758 c 1.96349,-0.25013 8.29498,-0.95415 14.06998,-1.56449 19.58588,-2.06997 48.93143,-7.558 64.5,-12.0624 38.49933,-11.13891 60.6171,-19.9386 89.73249,-35.70066 39.47376,-21.36971 71.85375,-45.81156 104.50632,-78.88599 33.74614,-34.18213 59.16503,-69.45016 80.09695,-111.13236 11.01453,-21.93349 18.74053,-42.3551 28.05861,-74.16537 3.273,-11.17345 10.24897,-45.19292 11.99591,-58.5 4.34944,-33.13139 4.16712,-86.06306 -0.39265,-114 -4.89764,-30.00693 -10.14966,-51.34656 -19.97075,-81.14367 C 901.20642,357.24806 900.43656,355.2877 894.78382,343 c -1.64461,-3.575 -3.66763,-8.1875 -4.49559,-10.25 -0.82797,-2.0625 -2.02109,-3.75 -2.6514,-3.75 -0.6303,0 -4.54872,3.51483 -8.70758,7.81072 -27.71206,28.62518 -69.33144,49.58707 -116.52368,58.68798 -24.96907,4.81522 -33.88557,5.75235 -56.40557,5.92827 -24.79648,0.1937 -27.56351,0.77049 -35.64235,7.42976 -9.03984,7.45139 -29.54296,36.01579 -45.68224,63.64327 -34.41206,58.9071 -75.96353,159.99331 -119.20448,290 -19.19939,57.72423 -36.4372,118.68364 -45.80956,162 l -2.38007,11 5.10935,0.78238 c 14.62825,2.24 56.83107,2.97523 70.53937,1.22889 z M 363.61365,911.25 c -0.31571,-2.6125 -1.04829,-9.925 -1.62795,-16.25 -0.57966,-6.325 -2.15981,-23.2 -3.51143,-37.5 -1.35163,-14.3 -2.69433,-28.7 -2.98379,-32 -0.28945,-3.3 -0.97147,-10.05 -1.5156,-15 -0.54412,-4.95 -1.67553,-15.75 -2.51423,-24 -0.83871,-8.25 -2.16515,-20.4 -2.94765,-27 -0.78249,-6.6 -2.37238,-21 -3.53307,-32 -1.16069,-11 -2.99747,-26.975 -4.08174,-35.5 -1.08426,-8.525 -2.42043,-19.325 -2.96926,-24 -0.54883,-4.675 -1.43837,-11.425 -1.97675,-15 -0.53839,-3.575 -1.37605,-10.325 -1.86146,-15 -1.98061,-19.07504 -13.24417,-89.72298 -20.08847,-126 -11.30314,-59.9103 -19.52323,-94.96886 -35.99077,-153.5 -6.5798,-23.3868 -23.99452,-75.05421 -28.98667,-86 -0.50169,-1.1 -2.01968,-5.15 -3.37332,-9 -3.02635,-8.60753 -8.40014,-21.8371 -12.38895,-30.5 C 226.7918,218.94682 225,214.9208 225,214.43476 225,212.85051 211.54156,187 210.71676,187 c -1.24709,0 -7.21328,5.34514 -21.08365,18.88895 -23.80897,23.24843 -45.57493,51.10102 -64.55804,82.61105 -7.4566,12.37719 -21.02899,38.92965 -26.068856,51 -2.296474,5.5 -4.764518,11.35 -5.484542,13 -1.645102,3.7699 -7.502593,20.46711 -10.875005,31 -3.707368,11.57905 -10.157128,38.17004 -12.491546,51.5 -2.007145,11.46117 -3.192767,20.52453 -5.167188,39.5 -1.008288,9.6903 -1.448892,55.44413 -0.582608,60.5 0.235595,1.375 0.724684,6.55 1.086863,11.5 1.720922,23.52028 7.999338,58.33659 14.594294,80.93115 13.986298,47.91758 32.545428,85.89423 64.053158,131.06885 5.1795,7.42618 23.18594,29.58866 28.45734,35.02555 2.14666,2.21404 7.77227,8.06404 12.50136,13 14.23162,14.85415 22.63843,22.54191 38.84876,35.52594 22.90991,18.35022 41.43902,30.79396 62.5529,42.00916 20.25216,10.75747 27.0221,13.89965 50,23.20691 8.27429,3.35152 23.87446,8.57747 25.84384,8.65751 1.61996,0.0658 1.77414,-0.5018 1.26981,-4.67507 z m 69.2772,-166.5 c 4.7471,-6.30044 41.91748,-80.14295 70.59816,-140.25 12.97259,-27.1871 15.99927,-33.60528 25.08151,-53.18634 18.13043,-39.08871 48.992,-98.91535 65.15889,-126.31366 35.03604,-59.37619 54.97085,-88.31791 90.2317,-131 13.01544,-15.75476 18.8791,-22.00652 45.02027,-48 23.60865,-23.47527 30.60088,-31.24886 29.58557,-32.89167 C 757.62768,211.58856 747.68054,209 742.77975,209 731.01681,209 720.91993,212.75714 702,224.17452 c -11.77158,7.10365 -20.8125,13.51202 -31.35844,22.22743 -9.67846,7.9985 -38.42354,37.01905 -47.64149,48.09805 -7.05184,8.47555 -18.00247,21.28632 -23.93437,28 -1.45787,1.65 -5.43829,6.65697 -8.84537,11.1266 -6.41691,8.41809 -9.15869,10.81786 -13.64654,11.94424 -2.56227,0.64309 -2.62054,0.55518 -2.12424,-3.20481 0.28066,-2.12632 0.99865,-7.91603 1.59554,-12.86603 3.69937,-30.67899 14.44012,-66.60093 28.85375,-96.5 11.7339,-24.34035 27.62148,-46.63917 44.96299,-63.10725 10.78105,-10.23806 32.22254,-24.97333 45.88817,-31.53581 5.0875,-2.44311 9.25,-4.61405 9.25,-4.82432 0,-0.78802 -18.01953,-10.65454 -28.06797,-15.36851 C 639.26158,100.49198 606.04891,89.783016 571,84.007815 564.125,82.874984 556.025,81.515558 553,80.986869 534.84675,77.814167 487.28626,76.132474 466.5,77.928313 400.73719,83.609922 342.39932,101.17031 288.25356,131.58261 272.47868,140.44296 259,149.08192 259,150.33225 c 0,0.47106 2.63063,4.52651 5.84586,9.01211 23.1023,32.23037 44.68078,70.99278 59.93036,107.65564 5.83696,14.03315 13.28032,34.33484 18.51519,50.5 23.6167,72.92783 38.50832,146.08727 58.21537,286 3.64103,25.85 7.47967,52.4 8.53031,59 1.05064,6.6 3.71485,24.6 5.92047,40 2.20562,15.4 4.64376,30.25 5.41808,33 1.85159,6.57592 5.4796,14.5 6.63876,14.5 0.50645,0 2.70085,-2.3625 4.87645,-5.25 z"
       id="path837" />
  </g>
</svg>
